<svg width="316" height="53" viewBox="0 0 316 53" fill="none" xmlns="http://www.w3.org/2000/svg">
<path d="M31.862 41.656C31.358 41.656 31.022 41.32 31.022 40.816C31.022 40.312 31.358 39.976 31.862 39.976C32.366 39.976 32.702 40.312 32.702 40.816C32.702 41.32 32.366 41.656 31.862 41.656ZM32.422 43V50H31.302V43H32.422ZM38.6748 42.86C40.1167 42.86 41.0548 43.574 41.5728 44.722L40.5088 45.226C40.2148 44.33 39.6128 43.84 38.6468 43.84C37.2467 43.84 36.4067 44.834 36.4067 46.5C36.4067 48.166 37.2467 49.16 38.6468 49.16C39.7388 49.16 40.3968 48.642 40.6068 47.718L41.6428 48.082C41.1668 49.37 40.1588 50.14 38.6748 50.14C36.5607 50.14 35.2867 48.768 35.2867 46.5C35.2867 44.232 36.5607 42.86 38.6748 42.86ZM44.8831 41.656C44.3791 41.656 44.0431 41.32 44.0431 40.816C44.0431 40.312 44.3791 39.976 44.8831 39.976C45.3871 39.976 45.7231 40.312 45.7231 40.816C45.7231 41.32 45.3871 41.656 44.8831 41.656ZM45.4431 43V50H44.3231V43H45.4431ZM57.8319 48.572L58.2239 49.51C57.7899 49.902 57.1879 50.14 56.4179 50.14C55.3819 50.14 54.4859 49.622 54.4719 48.264V43.966H53.0719V43H54.4719V41.32L55.5919 41.012V43H58.1819V43.966H55.5919V48.068C55.5919 48.754 56.0259 49.09 56.6419 49.09C57.1459 49.09 57.5099 48.894 57.8319 48.572ZM65.4471 43H66.5671V50H65.5871L65.5171 48.936C65.0271 49.776 64.1311 50.14 63.0111 50.14C61.6251 50.14 60.4351 49.426 60.4351 47.578V43H61.5551V47.284C61.5551 48.726 62.1991 49.16 63.2071 49.16C64.3971 49.16 65.4471 48.46 65.4471 46.808V43ZM78.7886 42.86C80.7346 42.86 81.9806 44.218 81.9806 46.5C81.9806 48.782 80.7346 50.14 78.7886 50.14C77.7386 50.14 76.8986 49.636 76.4646 48.908V52.94H75.3446V43H76.3246L76.3946 44.218C76.8006 43.42 77.6826 42.86 78.7886 42.86ZM78.6626 49.16C80.0346 49.16 80.8606 48.124 80.8606 46.5C80.8606 44.876 80.0346 43.84 78.6626 43.84C77.3326 43.84 76.4646 44.834 76.4646 46.416V46.584C76.4646 48.166 77.3326 49.16 78.6626 49.16ZM90.8689 46.136C90.8689 46.458 90.8409 46.724 90.8129 46.92H85.5349C85.6749 48.334 86.5289 49.16 87.8169 49.16C88.8389 49.16 89.5389 48.796 89.7909 48.124L90.7289 48.614C90.1969 49.566 89.3289 50.14 87.8169 50.14C85.7029 50.14 84.4289 48.768 84.4289 46.5C84.4289 44.232 85.6189 42.86 87.7329 42.86C89.7629 42.86 90.8689 44.33 90.8689 46.136ZM87.7329 43.84C86.4869 43.84 85.7169 44.61 85.5489 45.926H89.7909C89.6369 44.638 88.9229 43.84 87.7329 43.84ZM98.6397 43H99.7597V50H98.7797L98.7097 48.936C98.2197 49.776 97.3237 50.14 96.2037 50.14C94.8177 50.14 93.6277 49.426 93.6277 47.578V43H94.7477V47.284C94.7477 48.726 95.3917 49.16 96.3997 49.16C97.5897 49.16 98.6397 48.46 98.6397 46.808V43ZM108.764 50H107.392L105.46 47.298L103.472 50H102.17L104.858 46.472L102.338 43H103.738L105.586 45.59L107.406 43H108.722L106.188 46.43L108.764 50ZM119.383 42.86C120.825 42.86 121.763 43.574 122.281 44.722L121.217 45.226C120.923 44.33 120.321 43.84 119.355 43.84C117.955 43.84 117.115 44.834 117.115 46.5C117.115 48.166 117.955 49.16 119.355 49.16C120.447 49.16 121.105 48.642 121.315 47.718L122.351 48.082C121.875 49.37 120.867 50.14 119.383 50.14C117.269 50.14 115.995 48.768 115.995 46.5C115.995 44.232 117.269 42.86 119.383 42.86ZM128.433 42.86C129.931 42.86 131.163 43.714 131.163 45.52V50H130.043V45.912C130.043 44.358 129.287 43.84 128.321 43.84C127.299 43.84 126.151 44.498 126.151 46.29V50H125.031V39.78H126.151V44.05C126.641 43.21 127.481 42.86 128.433 42.86ZM140.139 49.188C140.321 49.188 140.531 49.16 140.699 49.118L140.629 50C140.433 50.07 140.139 50.14 139.789 50.14C139.103 50.14 138.655 49.888 138.529 49.104C138.081 49.762 137.171 50.14 136.275 50.14C134.959 50.14 133.895 49.524 133.895 48.264C133.895 47.214 134.819 46.388 136.625 46.08L138.487 45.772V45.38C138.487 44.456 137.899 43.84 136.849 43.84C135.925 43.84 135.225 44.288 134.847 45.17L134.021 44.568C134.385 43.532 135.491 42.86 136.849 42.86C138.445 42.86 139.607 43.616 139.607 45.24V48.684C139.607 49.02 139.747 49.188 140.139 49.188ZM136.331 49.16C137.451 49.16 138.487 48.572 138.487 47.648V46.682L136.919 46.976C135.687 47.2 135.057 47.606 135.057 48.264C135.057 48.852 135.533 49.16 136.331 49.16ZM146.431 42.86C147.929 42.86 149.161 43.714 149.161 45.52V50H148.041V45.912C148.041 44.358 147.285 43.84 146.319 43.84C145.297 43.84 144.149 44.484 144.149 46.276V50H143.029V43H144.009L144.079 44.092C144.569 43.21 145.465 42.86 146.431 42.86ZM156.303 49.104C157.633 49.104 158.417 49.762 158.417 50.77C158.417 52.156 156.849 53.01 154.959 53.01C152.747 53.01 151.739 52.212 151.739 51.162C151.739 50.518 152.201 50.014 152.971 49.804C152.439 49.552 152.019 49.132 152.019 48.516C152.019 47.788 152.453 47.354 153.069 47.144C152.397 46.724 152.047 46.038 152.047 45.226C152.047 43.84 153.237 42.86 154.917 42.86C155.449 42.86 155.925 42.958 156.345 43.14C156.611 42.174 157.269 41.712 158.319 41.712L158.571 42.692C157.633 42.692 157.101 42.958 156.905 43.462C157.465 43.882 157.787 44.498 157.787 45.226C157.787 46.612 156.597 47.592 154.917 47.592C154.511 47.592 154.147 47.55 153.839 47.466C153.279 47.592 153.055 47.872 153.055 48.348C153.055 48.838 153.433 49.104 153.979 49.104H156.303ZM154.917 43.77C153.951 43.77 153.209 44.358 153.209 45.226C153.209 46.094 153.951 46.682 154.917 46.682C155.883 46.682 156.625 46.094 156.625 45.226C156.625 44.358 155.883 43.77 154.917 43.77ZM155.085 52.072C156.569 52.072 157.381 51.512 157.381 50.896C157.381 50.392 157.045 50.07 155.995 50.07H154.119C153.237 50.07 152.775 50.406 152.775 50.938C152.775 51.624 153.545 52.072 155.085 52.072ZM166.786 46.136C166.786 46.458 166.758 46.724 166.73 46.92H161.452C161.592 48.334 162.446 49.16 163.734 49.16C164.756 49.16 165.456 48.796 165.708 48.124L166.646 48.614C166.114 49.566 165.246 50.14 163.734 50.14C161.62 50.14 160.346 48.768 160.346 46.5C160.346 44.232 161.536 42.86 163.65 42.86C165.68 42.86 166.786 44.33 166.786 46.136ZM163.65 43.84C162.404 43.84 161.634 44.61 161.466 45.926H165.708C165.554 44.638 164.84 43.84 163.65 43.84ZM172.919 42.86C173.157 42.86 173.479 42.888 173.689 43L173.465 44.092C173.255 43.98 172.947 43.91 172.583 43.91C171.743 43.91 170.735 44.652 170.735 46.22V50H169.615V43H170.525L170.679 44.148C171.071 43.294 171.827 42.86 172.919 42.86ZM182.237 39.78V48.124C182.237 48.838 182.419 49.062 182.993 49.062C183.371 49.062 183.609 49.02 184.015 48.866L183.833 49.944C183.539 50.07 183.161 50.14 182.797 50.14C181.663 50.14 181.117 49.538 181.117 48.264V39.78H182.237ZM192.158 46.136C192.158 46.458 192.13 46.724 192.102 46.92H186.824C186.964 48.334 187.818 49.16 189.106 49.16C190.128 49.16 190.828 48.796 191.08 48.124L192.018 48.614C191.486 49.566 190.618 50.14 189.106 50.14C186.992 50.14 185.718 48.768 185.718 46.5C185.718 44.232 186.908 42.86 189.022 42.86C191.052 42.86 192.158 44.33 192.158 46.136ZM189.022 43.84C187.776 43.84 187.006 44.61 186.838 45.926H191.08C190.926 44.638 190.212 43.84 189.022 43.84ZM202.839 50.14C201.551 50.14 200.361 49.636 199.829 48.558L200.739 47.928C201.075 48.782 201.943 49.16 202.951 49.16C204.099 49.16 204.645 48.698 204.645 48.124C204.645 47.606 204.211 47.298 202.811 47.046C200.823 46.682 200.095 46.136 200.095 44.96C200.095 43.826 201.145 42.86 202.853 42.86C204.351 42.86 205.233 43.392 205.625 44.54L204.673 45.1C204.365 44.176 203.735 43.84 202.853 43.84C201.915 43.84 201.215 44.344 201.215 44.862C201.215 45.464 201.677 45.772 203.105 46.01C205.065 46.332 205.765 46.92 205.765 48.068C205.765 49.286 204.631 50.14 202.839 50.14ZM212.433 48.572L212.825 49.51C212.391 49.902 211.789 50.14 211.019 50.14C209.983 50.14 209.087 49.622 209.073 48.264V43.966H207.673V43H209.073V41.32L210.193 41.012V43H212.783V43.966H210.193V48.068C210.193 48.754 210.627 49.09 211.243 49.09C211.747 49.09 212.111 48.894 212.433 48.572ZM221.057 43L217.767 51.176C217.221 52.548 216.591 53.01 215.555 53.01C214.855 53.01 214.407 52.842 214.015 52.422L214.407 51.47C214.729 51.918 215.149 52.03 215.541 52.03C216.031 52.03 216.465 51.82 216.815 50.896L217.179 49.986L214.253 43H215.527L217.277 47.564L217.711 48.81L218.215 47.424L219.853 43H221.057ZM224.363 39.78V48.124C224.363 48.838 224.545 49.062 225.119 49.062C225.497 49.062 225.735 49.02 226.141 48.866L225.959 49.944C225.665 50.07 225.287 50.14 224.923 50.14C223.789 50.14 223.243 49.538 223.243 48.264V39.78H224.363ZM234.284 46.136C234.284 46.458 234.256 46.724 234.228 46.92H228.95C229.09 48.334 229.944 49.16 231.232 49.16C232.254 49.16 232.954 48.796 233.206 48.124L234.144 48.614C233.612 49.566 232.744 50.14 231.232 50.14C229.118 50.14 227.844 48.768 227.844 46.5C227.844 44.232 229.034 42.86 231.148 42.86C233.178 42.86 234.284 44.33 234.284 46.136ZM231.148 43.84C229.902 43.84 229.132 44.61 228.964 45.926H233.206C233.052 44.638 232.338 43.84 231.148 43.84ZM247.68 39.78H248.8V50H247.82L247.75 48.782C247.344 49.58 246.462 50.14 245.356 50.14C243.41 50.14 242.164 48.782 242.164 46.5C242.164 44.218 243.41 42.86 245.356 42.86C246.406 42.86 247.246 43.364 247.68 44.092V39.78ZM245.482 49.16C246.812 49.16 247.68 48.166 247.68 46.584V46.416C247.68 44.834 246.812 43.84 245.482 43.84C244.11 43.84 243.284 44.876 243.284 46.5C243.284 48.124 244.11 49.16 245.482 49.16ZM258.109 46.136C258.109 46.458 258.081 46.724 258.053 46.92H252.775C252.915 48.334 253.769 49.16 255.057 49.16C256.079 49.16 256.779 48.796 257.031 48.124L257.969 48.614C257.437 49.566 256.569 50.14 255.057 50.14C252.943 50.14 251.669 48.768 251.669 46.5C251.669 44.232 252.859 42.86 254.973 42.86C257.003 42.86 258.109 44.33 258.109 46.136ZM254.973 43.84C253.727 43.84 252.957 44.61 252.789 45.926H257.031C256.877 44.638 256.163 43.84 254.973 43.84ZM269.363 42.86C270.805 42.86 271.743 43.574 272.261 44.722L271.197 45.226C270.903 44.33 270.301 43.84 269.335 43.84C267.935 43.84 267.095 44.834 267.095 46.5C267.095 48.166 267.935 49.16 269.335 49.16C270.427 49.16 271.085 48.642 271.295 47.718L272.331 48.082C271.855 49.37 270.847 50.14 269.363 50.14C267.249 50.14 265.975 48.768 265.975 46.5C265.975 44.232 267.249 42.86 269.363 42.86ZM281.017 46.136C281.017 46.458 280.989 46.724 280.961 46.92H275.683C275.823 48.334 276.677 49.16 277.965 49.16C278.987 49.16 279.687 48.796 279.939 48.124L280.877 48.614C280.345 49.566 279.477 50.14 277.965 50.14C275.851 50.14 274.577 48.768 274.577 46.5C274.577 44.232 275.767 42.86 277.881 42.86C279.911 42.86 281.017 44.33 281.017 46.136ZM277.881 43.84C276.635 43.84 275.865 44.61 275.697 45.926H279.939C279.785 44.638 279.071 43.84 277.881 43.84ZM291.698 50.14C290.41 50.14 289.22 49.636 288.688 48.558L289.598 47.928C289.934 48.782 290.802 49.16 291.81 49.16C292.958 49.16 293.504 48.698 293.504 48.124C293.504 47.606 293.07 47.298 291.67 47.046C289.682 46.682 288.954 46.136 288.954 44.96C288.954 43.826 290.004 42.86 291.712 42.86C293.21 42.86 294.092 43.392 294.484 44.54L293.532 45.1C293.224 44.176 292.594 43.84 291.712 43.84C290.774 43.84 290.074 44.344 290.074 44.862C290.074 45.464 290.536 45.772 291.964 46.01C293.924 46.332 294.624 46.92 294.624 48.068C294.624 49.286 293.49 50.14 291.698 50.14ZM297.96 41.656C297.456 41.656 297.12 41.32 297.12 40.816C297.12 40.312 297.456 39.976 297.96 39.976C298.464 39.976 298.8 40.312 298.8 40.816C298.8 41.32 298.464 41.656 297.96 41.656ZM298.52 43V50H297.4V43H298.52ZM305.711 48.572L306.103 49.51C305.669 49.902 305.067 50.14 304.297 50.14C303.261 50.14 302.365 49.622 302.351 48.264V43.966H300.951V43H302.351V41.32L303.471 41.012V43H306.061V43.966H303.471V48.068C303.471 48.754 303.905 49.09 304.521 49.09C305.025 49.09 305.389 48.894 305.711 48.572ZM314.39 46.136C314.39 46.458 314.362 46.724 314.334 46.92H309.056C309.196 48.334 310.05 49.16 311.338 49.16C312.36 49.16 313.06 48.796 313.312 48.124L314.25 48.614C313.718 49.566 312.85 50.14 311.338 50.14C309.224 50.14 307.95 48.768 307.95 46.5C307.95 44.232 309.14 42.86 311.254 42.86C313.284 42.86 314.39 44.33 314.39 46.136ZM311.254 43.84C310.008 43.84 309.238 44.61 309.07 45.926H313.312C313.158 44.638 312.444 43.84 311.254 43.84Z" fill="#6C6A6A"/>
<path d="M13.1125 1L16.6123 5.5L22.6123 10V1H13.1125Z" fill="black"/>
<path d="M13.1125 45C8.61245 44.6667 -0.0875476 41.5 1.11245 31.5C2.31245 21.5 11.9457 10 16.6123 5.5M16.6123 5.5L13.1125 1H22.6123V10L16.6123 5.5Z" stroke="black"/>
</svg>
